<?xml version="1.0" encoding="UTF-8" standalone="no"?>
<!DOCTYPE svg PUBLIC "-//W3C//DTD SVG 1.1//EN"
 "http://www.w3.org/Graphics/SVG/1.1/DTD/svg11.dtd">
<!-- Generated by graphviz version 2.43.0 (0)
 -->
<!-- Title: %3 Pages: 1 -->
<svg width="842pt" height="260pt"
 viewBox="0.00 0.00 841.76 260.00" xmlns="http://www.w3.org/2000/svg" xmlns:xlink="http://www.w3.org/1999/xlink">
<g id="graph0" class="graph" transform="scale(1 1) rotate(0) translate(4 256)">
<title>%3</title>
<polygon fill="white" stroke="transparent" points="-4,4 -4,-256 837.76,-256 837.76,4 -4,4"/>
<!-- [root] helm_release.spark&#45;operator (expand) -->
<g id="node1" class="node">
<title>[root] helm_release.spark&#45;operator (expand)</title>
<polygon fill="none" stroke="black" points="647.23,-108 426.23,-108 426.23,-72 647.23,-72 647.23,-108"/>
<text text-anchor="middle" x="536.73" y="-86.3" font-family="Times,serif" font-size="14.00">helm_release.spark&#45;operator</text>
</g>
<!-- [root] provider[&quot;registry.terraform.io/hashicorp/helm&quot;] -->
<g id="node2" class="node">
<title>[root] provider[&quot;registry.terraform.io/hashicorp/helm&quot;]</title>
<polygon fill="none" stroke="black" points="332.73,-36 -0.24,-18 332.73,0 665.7,-18 332.73,-36"/>
<text text-anchor="middle" x="332.73" y="-14.3" font-family="Times,serif" font-size="14.00">provider[&quot;registry.terraform.io/hashicorp/helm&quot;]</text>
</g>
<!-- [root] helm_release.spark&#45;operator (expand)&#45;&gt;[root] provider[&quot;registry.terraform.io/hashicorp/helm&quot;] -->
<g id="edge1" class="edge">
<title>[root] helm_release.spark&#45;operator (expand)&#45;&gt;[root] provider[&quot;registry.terraform.io/hashicorp/helm&quot;]</title>
<path fill="none" stroke="black" d="M487.09,-71.97C456.34,-61.41 416.87,-47.87 385.54,-37.12"/>
<polygon fill="black" stroke="black" points="386.27,-33.67 375.68,-33.73 384,-40.29 386.27,-33.67"/>
</g>
<!-- [root] var.image_tag -->
<g id="node3" class="node">
<title>[root] var.image_tag</title>
<polygon fill="none" stroke="black" points="793.73,-36 683.73,-36 683.73,0 799.73,0 799.73,-30 793.73,-36"/>
<polyline fill="none" stroke="black" points="793.73,-36 793.73,-30 "/>
<polyline fill="none" stroke="black" points="799.73,-30 793.73,-30 "/>
<text text-anchor="middle" x="741.73" y="-14.3" font-family="Times,serif" font-size="14.00">var.image_tag</text>
</g>
<!-- [root] helm_release.spark&#45;operator (expand)&#45;&gt;[root] var.image_tag -->
<g id="edge2" class="edge">
<title>[root] helm_release.spark&#45;operator (expand)&#45;&gt;[root] var.image_tag</title>
<path fill="none" stroke="black" d="M586.62,-71.97C615.39,-62.14 651.74,-49.73 682.02,-39.39"/>
<polygon fill="black" stroke="black" points="683.29,-42.65 691.62,-36.11 681.03,-36.03 683.29,-42.65"/>
</g>
<!-- [root] provider[&quot;registry.terraform.io/hashicorp/helm&quot;] (close) -->
<g id="node4" class="node">
<title>[root] provider[&quot;registry.terraform.io/hashicorp/helm&quot;] (close)</title>
<ellipse fill="none" stroke="black" cx="536.73" cy="-162" rx="297.05" ry="18"/>
<text text-anchor="middle" x="536.73" y="-158.3" font-family="Times,serif" font-size="14.00">[root] provider[&quot;registry.terraform.io/hashicorp/helm&quot;] (close)</text>
</g>
<!-- [root] provider[&quot;registry.terraform.io/hashicorp/helm&quot;] (close)&#45;&gt;[root] helm_release.spark&#45;operator (expand) -->
<g id="edge3" class="edge">
<title>[root] provider[&quot;registry.terraform.io/hashicorp/helm&quot;] (close)&#45;&gt;[root] helm_release.spark&#45;operator (expand)</title>
<path fill="none" stroke="black" d="M536.73,-143.7C536.73,-135.98 536.73,-126.71 536.73,-118.11"/>
<polygon fill="black" stroke="black" points="540.24,-118.1 536.73,-108.1 533.24,-118.1 540.24,-118.1"/>
</g>
<!-- [root] root -->
<g id="node5" class="node">
<title>[root] root</title>
<ellipse fill="none" stroke="black" cx="536.73" cy="-234" rx="58.49" ry="18"/>
<text text-anchor="middle" x="536.73" y="-230.3" font-family="Times,serif" font-size="14.00">[root] root</text>
</g>
<!-- [root] root&#45;&gt;[root] provider[&quot;registry.terraform.io/hashicorp/helm&quot;] (close) -->
<g id="edge4" class="edge">
<title>[root] root&#45;&gt;[root] provider[&quot;registry.terraform.io/hashicorp/helm&quot;] (close)</title>
<path fill="none" stroke="black" d="M536.73,-215.7C536.73,-207.98 536.73,-198.71 536.73,-190.11"/>
<polygon fill="black" stroke="black" points="540.24,-190.1 536.73,-180.1 533.24,-190.1 540.24,-190.1"/>
</g>
</g>
</svg>
